<svg xmlns="http://www.w3.org/2000/svg" viewBox="0 0 32 32">
  <defs>
    <linearGradient id="bg" x1="0%" y1="0%" x2="100%" y2="100%">
      <stop offset="0%" style="stop-color:#0a0a1a"/>
      <stop offset="100%" style="stop-color:#1a1a3a"/>
    </linearGradient>
    <linearGradient id="star" x1="0%" y1="0%" x2="100%" y2="100%">
      <stop offset="0%" style="stop-color:#22d3ee"/>
      <stop offset="100%" style="stop-color:#06b6d4"/>
    </linearGradient>
  </defs>
  <circle cx="16" cy="16" r="15" fill="url(#bg)" stroke="#22d3ee" stroke-width="1"/>
  <circle cx="16" cy="16" r="11" fill="none" stroke="#22d3ee" stroke-width="0.5" opacity="0.5"/>
  <path d="M16 4 L17.5 12 L16 10 L14.5 12 Z" fill="url(#star)"/>
  <path d="M16 28 L14.5 20 L16 22 L17.5 20 Z" fill="url(#star)"/>
  <path d="M4 16 L12 14.5 L10 16 L12 17.5 Z" fill="url(#star)"/>
  <path d="M28 16 L20 17.5 L22 16 L20 14.5 Z" fill="url(#star)"/>
  <circle cx="16" cy="16" r="3" fill="url(#star)"/>
  <circle cx="10" cy="10" r="1" fill="#fff" opacity="0.8"/>
  <circle cx="22" cy="8" r="0.7" fill="#fff" opacity="0.6"/>
  <circle cx="24" cy="22" r="0.8" fill="#fff" opacity="0.7"/>
  <circle cx="8" cy="20" r="0.6" fill="#fff" opacity="0.5"/>
</svg>
